# xmcd
#
# Track frame offsets: 
#        150
#        10882
#        23946
#        36315
#        51282
#        69362
#        82096
#        101065
#        114975
#        127695
#        139269
#        154977
#        177450
#        200008
#        220545
#        239572
#        252802
#        267202
#        283723
#        302980
#        314975
#        327486
#        342220
#
# Disc length: 4798 seconds
#
# Revision: 7
# Processed by: cddbd v1.5.2PL0 Copyright (c) Steve Scherf et al.
# Submitted via: ExactAudioCopy v1.0b3
#
DISCID=6012bc17
DTITLE=Cream - I Feel Free - Ultimate Cream
DYEAR=2005
DGENRE=Blues
TTITLE0=Wrapping Paper
TTITLE1=I Feel Free
TTITLE2=N.S.U.
TTITLE3=Sweet Wine
TTITLE4=I'm So Glad
TTITLE5=Strange Brew
TTITLE6=Sunshine Of Your Love
TTITLE7=World Of Pain
TTITLE8=Tales Of Brave Ulysses
TTITLE9=Swlabr
TTITLE10=We're Going Wrong
TTITLE11=White Room
TTITLE12=Sitting On Top Of The World
TTITLE13=Passing The Time
TTITLE14=Politician
TTITLE15=Those Were The Days
TTITLE16=Born Under A Bad Sign
TTITLE17=Deserted Cities Of The Heart
TTITLE18=Crossroads [Live]
TTITLE19=Anyone For Tennis
TTITLE20=Badge
TTITLE21=Doing That Scrapyard Thing
TTITLE22=What A Bringdown
EXTD=YEAR: 2005
EXTT0=
EXTT1=
EXTT2=
EXTT3=
EXTT4=
EXTT5=
EXTT6=
EXTT7=
EXTT8=
EXTT9=
EXTT10=
EXTT11=
EXTT12=
EXTT13=
EXTT14=
EXTT15=
EXTT16=
EXTT17=
EXTT18=
EXTT19=
EXTT20=
EXTT21=
EXTT22=
PLAYORDER=
